<?xml version="1.0" standalone="no"?>
<!DOCTYPE svg PUBLIC "-//W3C//DTD SVG 20010904//EN"
 "http://www.w3.org/TR/2001/REC-SVG-20010904/DTD/svg10.dtd">
<svg version="1.0" xmlns="http://www.w3.org/2000/svg"
 width="512.000000pt" height="512.000000pt" viewBox="0 0 512.000000 512.000000"
 preserveAspectRatio="xMidYMid meet">
<metadata>
Created by potrace 1.11, written by Peter Selinger 2001-2013
</metadata>
<g transform="translate(0.000000,512.000000) scale(0.100000,-0.100000)"
fill="#000000" stroke="none">
<path d="M2532 5086 c-18 -13 -29 -26 -25 -29 3 -4 1 -7 -6 -7 -7 0 -47 -28
-89 -61 -42 -34 -92 -72 -112 -84 -19 -13 -45 -32 -57 -44 -12 -12 -26 -21
-30 -21 -4 0 -19 -12 -32 -25 -13 -14 -29 -25 -36 -25 -8 0 -17 -9 -20 -20 -4
-11 -10 -18 -15 -15 -5 3 -10 2 -12 -2 -1 -5 -22 -21 -45 -37 -24 -16 -43 -33
-43 -38 0 -5 -4 -7 -9 -3 -6 3 -13 0 -18 -8 -4 -7 -39 -35 -77 -62 -38 -27
-79 -57 -90 -67 -40 -36 -51 -45 -96 -75 -25 -17 -55 -41 -67 -52 -12 -12 -25
-21 -29 -21 -4 0 -31 -20 -60 -45 -28 -25 -55 -45 -59 -45 -3 0 -12 -6 -20
-12 -7 -7 -25 -22 -41 -33 -15 -11 -36 -28 -46 -37 -10 -10 -21 -18 -24 -18
-3 0 -11 -6 -19 -12 -7 -7 -25 -22 -41 -33 -15 -11 -42 -32 -60 -47 -17 -16
-34 -28 -38 -28 -3 0 -15 -8 -25 -17 -11 -10 -32 -27 -46 -38 -15 -11 -33 -26
-40 -32 -8 -7 -16 -13 -19 -13 -6 0 -50 -37 -82 -67 -7 -7 -15 -13 -19 -13 -3
0 -29 -18 -58 -40 -29 -22 -57 -44 -62 -48 -50 -36 -93 -69 -105 -79 -66 -53
-211 -163 -215 -163 -4 0 -38 -27 -69 -55 -6 -6 -36 -28 -66 -50 -30 -22 -57
-42 -60 -45 -3 -3 -32 -25 -65 -50 -33 -25 -62 -47 -65 -50 -3 -3 -30 -24 -61
-47 -31 -23 -63 -49 -72 -58 -10 -9 -17 -14 -17 -10 0 3 -6 1 -13 -5 -6 -6
-21 -17 -32 -25 -13 -9 -16 -17 -10 -22 6 -5 10 -15 10 -23 0 -8 8 -40 18 -70
10 -30 29 -91 42 -135 14 -44 34 -107 45 -140 11 -32 22 -68 24 -80 3 -11 14
-47 26 -80 11 -33 21 -62 22 -65 2 -13 8 -32 34 -115 15 -49 29 -94 30 -100 1
-5 14 -48 29 -95 16 -47 27 -85 26 -85 -1 0 8 -27 19 -60 12 -33 23 -67 25
-75 2 -8 29 -96 60 -195 31 -99 58 -184 59 -190 1 -5 7 -26 13 -45 30 -92 125
-396 153 -490 18 -58 38 -123 45 -145 8 -22 32 -101 55 -175 23 -74 53 -171
68 -215 14 -44 27 -85 28 -90 1 -6 27 -91 59 -190 31 -99 61 -193 65 -210 4
-16 13 -42 19 -58 l11 -27 1575 0 c1178 0 1575 3 1575 12 0 11 34 125 92 308
17 52 32 104 34 115 2 11 17 61 34 110 17 50 30 92 30 95 0 3 13 48 30 100
116 378 182 596 185 609 2 9 19 66 38 126 41 128 89 286 92 300 3 14 71 233
98 315 11 36 22 74 24 85 2 11 10 38 18 60 14 37 82 261 90 295 2 8 29 96 60
195 88 284 105 339 105 348 0 4 6 20 14 36 l15 28 -71 54 c-39 30 -76 59 -82
64 -6 6 -45 35 -86 66 -41 32 -84 64 -95 73 -30 24 -91 71 -400 310 -154 119
-320 248 -370 286 -143 111 -339 263 -375 290 -27 20 -202 156 -307 238 -12 9
-83 64 -159 122 -75 58 -183 142 -241 188 -57 45 -108 82 -112 82 -5 0 -11 3
-13 8 -3 7 -95 82 -144 117 -15 11 -42 32 -60 47 l-31 27 -31 -23z"/>
</g>
</svg>
