<svg width="42" height="42" viewBox="0 0 42 42" fill="none" xmlns="http://www.w3.org/2000/svg">
<path d="M21.0852 0.0761719C9.62226 0.0761719 0.326294 9.60687 0.326294 21.3639C0.326294 30.7674 6.27447 38.7449 14.5272 41.5623C15.5652 41.7584 15.9441 41.1011 15.9441 40.5366C15.9441 40.0304 15.926 38.6919 15.9156 36.9162C10.1413 38.2016 8.92156 34.0618 8.92156 34.0618C7.97951 31.6022 6.61703 30.9476 6.61703 30.9476C4.73033 29.6277 6.75717 29.6542 6.75717 29.6542C8.84111 29.8053 9.93628 31.8487 9.93628 31.8487C11.7892 35.1007 14.7971 34.1625 15.9805 33.6165C16.1673 32.241 16.7045 31.3027 17.2988 30.77C12.6898 30.232 7.84196 28.4059 7.84196 20.2507C7.84196 17.9264 8.65166 16.0261 9.9804 14.5365C9.765 13.9985 9.05392 11.8332 10.1828 8.90453C10.1828 8.90453 11.9268 8.33205 15.8922 11.0858C17.548 10.614 19.3231 10.3781 21.0904 10.3702C22.8525 10.3808 24.6302 10.614 26.2886 11.0884C30.2514 8.3347 31.9928 8.90718 31.9928 8.90718C33.1243 11.8385 32.4132 14.0012 32.2004 14.5392C33.5317 16.0287 34.3337 17.929 34.3337 20.2534C34.3337 28.4297 29.4807 30.2293 24.856 30.7568C25.6008 31.414 26.2652 32.7127 26.2652 34.6978C26.2652 37.5443 26.2393 39.8396 26.2393 40.5366C26.2393 41.1064 26.613 41.769 27.6666 41.5596C35.9063 38.7396 41.8493 30.7647 41.8493 21.3639C41.8493 9.60687 32.5534 0.0761719 21.0852 0.0761719Z" fill="#C4C4C4"/>
</svg>

