<svg width="43" height="42" viewBox="0 0 43 42" fill="none" xmlns="http://www.w3.org/2000/svg">
<path d="M31.0863 0H12.0431C5.84534 0 0.803223 5.04212 0.803223 11.2399V30.2834C0.803223 36.4809 5.84534 41.523 12.0431 41.523H31.0867C37.2841 41.523 42.3263 36.4809 42.3263 30.2834V11.2399C42.3263 5.04212 37.2841 0 31.0863 0V0ZM21.5647 32.1152C15.3042 32.1152 10.2111 27.022 10.2111 20.7615C10.2111 14.501 15.3042 9.40788 21.5647 9.40788C27.8253 9.40788 32.9184 14.501 32.9184 20.7615C32.9184 27.022 27.8253 32.1152 21.5647 32.1152ZM33.1899 12.0854C31.3398 12.0854 29.835 10.5807 29.835 8.73057C29.835 6.88048 31.3398 5.37539 33.1899 5.37539C35.04 5.37539 36.5451 6.88048 36.5451 8.73057C36.5451 10.5807 35.04 12.0854 33.1899 12.0854Z" fill="#C4C4C4"/>
</svg>

