<svg width="52" height="36" viewBox="0 0 52 36" fill="none" xmlns="http://www.w3.org/2000/svg">
<path d="M50.22 5.6751C49.6392 3.51553 47.9365 1.81317 45.7772 1.23167C41.8325 0.152344 26.0534 0.152344 26.0534 0.152344C26.0534 0.152344 10.275 0.152344 6.33028 1.19075C4.21256 1.77163 2.46835 3.51584 1.88746 5.6751C0.849365 9.61949 0.849365 17.7996 0.849365 17.7996C0.849365 17.7996 0.849365 26.021 1.88746 29.9242C2.46896 32.0834 4.17102 33.7858 6.33059 34.3673C10.3165 35.4469 26.0541 35.4469 26.0541 35.4469C26.0541 35.4469 41.8325 35.4469 45.7772 34.4085C47.9368 33.8273 49.6392 32.125 50.2207 29.9657C51.2584 26.021 51.2584 17.8412 51.2584 17.8412C51.2584 17.8412 51.3 9.61949 50.22 5.6751ZM21.0297 25.3567V10.2425L34.1508 17.7996L21.0297 25.3567Z" fill="#C4C4C4"/>
</svg>

